<svg width="32" height="126" viewBox="0 0 32 126" fill="none" xmlns="http://www.w3.org/2000/svg">
<path d="M20.8751 119.835C20.8751 122.78 23.2629 125.168 26.2084 125.168C29.1539 125.168 31.5418 122.78 31.5418 119.835C31.5418 116.889 29.1539 114.501 26.2084 114.501C23.2629 114.501 20.8751 116.889 20.8751 119.835ZM26.2084 5.8208H27.2084C27.2084 5.26852 26.7607 4.8208 26.2084 4.8208V5.8208ZM0.525065 5.8208C0.525065 8.76632 2.91288 11.1541 5.8584 11.1541C8.80392 11.1541 11.1917 8.76632 11.1917 5.8208C11.1917 2.87528 8.80392 0.487467 5.8584 0.487467C2.91288 0.487467 0.525065 2.87528 0.525065 5.8208ZM26.2084 4.8208H5.8584V6.8208H26.2084V4.8208ZM27.2084 119.835V62.8277H25.2084V119.835H27.2084ZM27.2084 62.8277V5.8208H25.2084V62.8277H27.2084Z" fill="white"/>
</svg>
