<svg width="12" height="54" viewBox="0 0 12 54" fill="none" xmlns="http://www.w3.org/2000/svg">
<path d="M0.666665 48C0.666665 50.9455 3.05448 53.3333 6 53.3333C8.94552 53.3333 11.3333 50.9455 11.3333 48C11.3333 45.0545 8.94552 42.6667 6 42.6667C3.05448 42.6667 0.666665 45.0545 0.666665 48ZM0.666667 6C0.666666 8.94552 3.05448 11.3333 6 11.3333C8.94552 11.3333 11.3333 8.94552 11.3333 6C11.3333 3.05448 8.94552 0.666667 6 0.666667C3.05448 0.666666 0.666667 3.05448 0.666667 6ZM7 48L7 6L5 6L5 48L7 48Z" fill="white"/>
</svg>
