<svg width="29" height="143" viewBox="0 0 29 143" fill="none" xmlns="http://www.w3.org/2000/svg">
<path d="M17.424 136.777C17.424 139.723 19.8118 142.11 22.7573 142.11C25.7028 142.11 28.0907 139.723 28.0907 136.777C28.0907 133.832 25.7028 131.444 22.7573 131.444C19.8118 131.444 17.424 133.832 17.424 136.777ZM22.7573 22.7633H23.7573C23.7573 22.4978 23.6518 22.2432 23.4639 22.0556L22.7573 22.7633ZM0.444499 5.80908C0.444499 8.7546 2.83231 11.1424 5.77783 11.1424C8.72335 11.1424 11.1112 8.7546 11.1112 5.80908C11.1112 2.86356 8.72335 0.475749 5.77783 0.475749C2.83231 0.475749 0.444499 2.86356 0.444499 5.80908ZM23.7573 136.777V22.7633H21.7573V136.777H23.7573ZM23.4639 22.0556L6.48441 5.10145L5.07125 6.51672L22.0507 23.4709L23.4639 22.0556Z" fill="white"/>
</svg>
