<svg width="29" height="143" viewBox="0 0 29 143" fill="none" xmlns="http://www.w3.org/2000/svg">
<path d="M0.909831 136.777C0.909831 139.723 3.29765 142.11 6.24316 142.11C9.18868 142.11 11.5765 139.723 11.5765 136.777C11.5765 133.832 9.18868 131.444 6.24316 131.444C3.29765 131.444 0.909831 133.832 0.909831 136.777ZM6.24316 22.7633L5.53625 22.056C5.3486 22.2435 5.24316 22.498 5.24316 22.7633H6.24316ZM17.8735 5.80908C17.8735 8.7546 20.2613 11.1424 23.2068 11.1424C26.1523 11.1424 28.5401 8.7546 28.5401 5.80908C28.5401 2.86356 26.1523 0.475749 23.2068 0.475749C20.2613 0.475749 17.8735 2.86356 17.8735 5.80908ZM7.24316 136.777V22.7633H5.24316V136.777H7.24316ZM6.95007 23.4706L23.9137 6.51639L22.4999 5.10178L5.53625 22.056L6.95007 23.4706Z" fill="white"/>
</svg>
