<svg width="32" height="126" viewBox="0 0 32 126" fill="none" xmlns="http://www.w3.org/2000/svg">
<path d="M0.457682 119.835C0.457682 122.78 2.8455 125.168 5.79102 125.168C8.73653 125.168 11.1243 122.78 11.1243 119.835C11.1243 116.889 8.73653 114.501 5.79102 114.501C2.8455 114.501 0.457682 116.889 0.457682 119.835ZM5.79102 5.8208V4.8208C5.23873 4.8208 4.79102 5.26852 4.79102 5.8208H5.79102ZM20.8077 5.8208C20.8077 8.76632 23.1955 11.1541 26.1411 11.1541C29.0866 11.1541 31.4744 8.76632 31.4744 5.8208C31.4744 2.87528 29.0866 0.487467 26.1411 0.487467C23.1955 0.487467 20.8077 2.87528 20.8077 5.8208ZM6.79102 119.835V5.8208H4.79102V119.835H6.79102ZM5.79102 6.8208H26.1411V4.8208H5.79102V6.8208Z" fill="white"/>
</svg>
